<?xml version="1.0" standalone="no"?>
<!DOCTYPE svg PUBLIC "-//W3C//DTD SVG 20010904//EN"
 "http://www.w3.org/TR/2001/REC-SVG-20010904/DTD/svg10.dtd">
<svg version="1.0" xmlns="http://www.w3.org/2000/svg"
 width="640.000000pt" height="640.000000pt" viewBox="0 0 640.000000 640.000000"
 preserveAspectRatio="xMidYMid meet">

<g transform="translate(0.000000,640.000000) scale(0.100000,-0.100000)"
fill="#000000" stroke="none">
<path d="M0 3200 l0 -3200 3200 0 3200 0 0 3200 0 3200 -3200 0 -3200 0 0
-3200z m6360 3130 c0 -5 -5 -10 -11 -10 -5 0 -7 5 -4 10 3 6 8 10 11 10 2 0 4
-4 4 -10z m-1940 -40 c0 -5 -4 -10 -10 -10 -5 0 -10 5 -10 10 0 6 5 10 10 10
6 0 10 -4 10 -10z m-3005 -50 c3 -5 1 -10 -4 -10 -6 0 -11 5 -11 10 0 6 2 10
4 10 3 0 8 -4 11 -10z m2385 -554 c0 -3 -4 -8 -10 -11 -5 -3 -10 -1 -10 4 0 6
5 11 10 11 6 0 10 -2 10 -4z m-2250 -86 c0 -5 -4 -10 -10 -10 -5 0 -10 5 -10
10 0 6 5 10 10 10 6 0 10 -4 10 -10z m280 -110 c0 -5 -4 -10 -10 -10 -5 0 -10
5 -10 10 0 6 5 10 10 10 6 0 10 -4 10 -10z m1667 -166 c-9 -9 -28 6 -21 18 4
6 10 6 17 -1 6 -6 8 -13 4 -17z m2043 -284 c0 -5 -4 -10 -9 -10 -6 0 -13 5
-16 10 -3 6 1 10 9 10 9 0 16 -4 16 -10z m-2560 -10 c0 -5 -5 -10 -11 -10 -5
0 -7 5 -4 10 3 6 8 10 11 10 2 0 4 -4 4 -10z m140 -4 c0 -3 -4 -8 -10 -11 -5
-3 -10 -1 -10 4 0 6 5 11 10 11 6 0 10 -2 10 -4z m-2410 -106 c0 -5 -4 -10
-10 -10 -5 0 -10 5 -10 10 0 6 5 10 10 10 6 0 10 -4 10 -10z m2920 -90 c0 -5
-4 -10 -10 -10 -5 0 -10 5 -10 10 0 6 5 10 10 10 6 0 10 -4 10 -10z m-1130
-20 c0 -5 -4 -10 -10 -10 -5 0 -10 5 -10 10 0 6 5 10 10 10 6 0 10 -4 10 -10z
m1160 -30 c0 -7 -264 -9 -777 -8 l-778 3 770 5 c424 3 773 6 778 8 4 1 7 -2 7
-8z m30 -432 c-1 -233 -1 -449 0 -481 0 -50 2 -58 18 -55 9 2 24 -5 33 -16 14
-18 19 -18 33 -7 14 12 19 11 35 -4 12 -10 27 -14 39 -10 15 4 22 0 27 -14 6
-21 17 -26 80 -36 28 -4 41 -11 43 -23 3 -31 7 -47 15 -59 5 -7 6 -17 3 -22
-3 -5 1 -14 9 -21 8 -7 15 -19 15 -26 0 -8 5 -14 11 -14 7 0 9 -12 7 -31 -3
-18 0 -33 7 -35 7 -3 10 -16 7 -29 -2 -14 -9 -22 -14 -19 -9 6 -37 -23 -38
-38 0 -5 8 -8 18 -8 14 0 14 -2 3 -9 -8 -5 -20 -7 -26 -4 -7 2 -15 -7 -19 -20
-6 -24 -57 -53 -70 -40 -3 4 -6 -1 -6 -10 0 -9 -11 -19 -25 -23 -14 -3 -25
-10 -25 -14 0 -4 -11 -5 -24 -3 -14 3 -35 -2 -48 -11 -12 -9 -33 -16 -46 -16
-12 0 -25 -7 -28 -15 -5 -12 -10 -13 -20 -4 -12 10 -14 -96 -15 -702 -1 -393
-1 -732 0 -754 2 -49 -6 -85 -19 -85 -7 0 -10 273 -10 770 0 507 -3 770 -10
770 -7 0 -10 -267 -10 -780 l0 -780 -55 0 -55 0 -2 793 -3 792 -2 -772 -3
-773 -50 0 -50 0 0 1435 c0 1140 -3 1437 -12 1440 -7 3 -143 13 -303 24 l-290
19 352 1 353 1 3 -412 2 -413 0 420 0 420 -662 3 -663 2 -1 -1447 c0 -797 -1
-1466 -2 -1488 l-2 -40 -58 -3 -57 -3 2 1543 3 1543 778 3 777 2 0 -475 c0
-310 3 -475 10 -475 7 0 10 164 10 473 0 261 3 477 7 480 3 4 10 7 15 7 4 0 8
-190 8 -422z m-752 255 c237 -15 432 -31 432 -35 0 -10 49 -12 -525 26 -269
19 -456 34 -415 35 41 1 270 -11 508 -26z m-173 -18 c292 -19 545 -35 563 -35
l32 0 0 -1465 0 -1465 -33 0 c-17 0 -272 16 -566 35 -293 19 -537 35 -542 35
-5 0 -9 612 -9 1465 0 1165 3 1465 13 1465 6 0 251 -16 542 -35z m633 -1492
c-2 -1162 -6 -1467 -15 -1471 -10 -3 -13 294 -13 1461 0 805 3 1467 7 1470 3
4 10 7 15 7 4 0 7 -660 6 -1467z m2132 1357 c0 -5 -5 -10 -11 -10 -5 0 -7 5
-4 10 3 6 8 10 11 10 2 0 4 -4 4 -10z m-600 -380 c0 -5 -4 -10 -10 -10 -5 0
-10 5 -10 10 0 6 5 10 10 10 6 0 10 -4 10 -10z m-4215 -40 c3 -5 1 -10 -4 -10
-6 0 -11 5 -11 10 0 6 2 10 4 10 3 0 8 -4 11 -10z m3130 -220 c-3 -5 -10 -10
-16 -10 -5 0 -9 5 -9 10 0 6 7 10 16 10 8 0 12 -4 9 -10z m-2435 -51 c0 -5 -4
-9 -10 -9 -5 0 -10 7 -10 16 0 8 5 12 10 9 6 -3 10 -10 10 -16z m610 -4 c0 -8
-4 -15 -10 -15 -5 0 -10 7 -10 15 0 8 5 15 10 15 6 0 10 -7 10 -15z m-965 -75
c3 -5 -1 -10 -10 -10 -9 0 -13 5 -10 10 3 6 8 10 10 10 2 0 7 -4 10 -10z
m3105 -180 c0 -5 -4 -10 -10 -10 -5 0 -10 5 -10 10 0 6 5 10 10 10 6 0 10 -4
10 -10z m-2600 -4 c0 -3 -4 -8 -10 -11 -5 -3 -10 -1 -10 4 0 6 5 11 10 11 6 0
10 -2 10 -4z m-1280 -86 c0 -5 -4 -10 -10 -10 -5 0 -10 5 -10 10 0 6 5 10 10
10 6 0 10 -4 10 -10z m50 -4 c0 -3 -4 -8 -10 -11 -5 -3 -10 -1 -10 4 0 6 5 11
10 11 6 0 10 -2 10 -4z m1370 -16 c0 -5 -7 -10 -15 -10 -8 0 -15 5 -15 10 0 6
7 10 15 10 8 0 15 -4 15 -10z m100 -250 c0 -5 -2 -10 -4 -10 -3 0 -8 5 -11 10
-3 6 -1 10 4 10 6 0 11 -4 11 -10z m3170 -324 c0 -3 -4 -8 -10 -11 -5 -3 -10
-1 -10 4 0 6 5 11 10 11 6 0 10 -2 10 -4z m598 -87 c-2 -6 -8 -10 -13 -10 -5
0 -11 4 -13 10 -2 6 4 11 13 11 9 0 15 -5 13 -11z m612 -9 c0 -5 -4 -10 -10
-10 -5 0 -10 5 -10 10 0 6 5 10 10 10 6 0 10 -4 10 -10z m-5370 -20 c0 -5 -4
-10 -10 -10 -5 0 -10 5 -10 10 0 6 5 10 10 10 6 0 10 -4 10 -10z m2990 -30 c0
-5 -4 -10 -10 -10 -5 0 -10 5 -10 10 0 6 5 10 10 10 6 0 10 -4 10 -10z m1420
-24 c0 -11 -19 -15 -25 -6 -3 5 1 10 9 10 9 0 16 -2 16 -4z m80 -196 c0 -5 -5
-10 -11 -10 -5 0 -7 5 -4 10 3 6 8 10 11 10 2 0 4 -4 4 -10z m550 -96 c0 -8
-4 -12 -10 -9 -5 3 -10 10 -10 16 0 5 5 9 10 9 6 0 10 -7 10 -16z m-405 -204
c3 -5 1 -10 -4 -10 -6 0 -11 5 -11 10 0 6 2 10 4 10 3 0 8 -4 11 -10z m515
-40 c0 -5 -4 -10 -10 -10 -5 0 -10 5 -10 10 0 6 5 10 10 10 6 0 10 -4 10 -10z
m-4910 -200 c0 -5 -2 -10 -4 -10 -3 0 -8 5 -11 10 -3 6 -1 10 4 10 6 0 11 -4
11 -10z m3880 -250 c0 -5 -4 -10 -10 -10 -5 0 -10 5 -10 10 0 6 5 10 10 10 6
0 10 -4 10 -10z m910 -300 c0 -5 -5 -10 -11 -10 -5 0 -7 5 -4 10 3 6 8 10 11
10 2 0 4 -4 4 -10z m-4490 -30 c0 -5 -4 -10 -10 -10 -5 0 -10 5 -10 10 0 6 5
10 10 10 6 0 10 -4 10 -10z m4290 -124 c0 -3 -4 -8 -10 -11 -5 -3 -10 -1 -10
4 0 6 5 11 10 11 6 0 10 -2 10 -4z m-4250 -110 c0 -3 -4 -8 -10 -11 -5 -3 -10
-1 -10 4 0 6 5 11 10 11 6 0 10 -2 10 -4z m-770 -196 c0 -5 -4 -10 -10 -10 -5
0 -10 5 -10 10 0 6 5 10 10 10 6 0 10 -4 10 -10z m2525 -20 c3 -5 1 -10 -4
-10 -6 0 -11 5 -11 10 0 6 2 10 4 10 3 0 8 -4 11 -10z m695 -265 c0 -8 -4 -15
-10 -15 -5 0 -10 7 -10 15 0 8 5 15 10 15 6 0 10 -7 10 -15z m612 -10 c0 -5
-5 -11 -11 -13 -6 -2 -11 4 -11 13 0 9 5 15 11 13 6 -2 11 -8 11 -13z m-962
-75 c0 -5 -4 -10 -10 -10 -5 0 -10 5 -10 10 0 6 5 10 10 10 6 0 10 -4 10 -10z
m1200 -10 c0 -5 -4 -10 -10 -10 -5 0 -10 5 -10 10 0 6 5 10 10 10 6 0 10 -4
10 -10z m-1980 -260 c0 -5 -2 -10 -4 -10 -3 0 -8 5 -11 10 -3 6 -1 10 4 10 6
0 11 -4 11 -10z m50 -10 c0 -5 -4 -10 -10 -10 -5 0 -10 5 -10 10 0 6 5 10 10
10 6 0 10 -4 10 -10z m1370 -10 c0 -5 -7 -10 -15 -10 -8 0 -15 5 -15 10 0 6 7
10 15 10 8 0 15 -4 15 -10z m-1850 -20 c0 -5 -5 -10 -11 -10 -5 0 -7 5 -4 10
3 6 8 10 11 10 2 0 4 -4 4 -10z m-680 -70 c0 -5 -4 -10 -10 -10 -5 0 -10 5
-10 10 0 6 5 10 10 10 6 0 10 -4 10 -10z"/>
<path d="M3235 3110 c-3 -6 -48 -10 -100 -10 -97 0 -111 -6 -100 -40 6 -18 15
-20 100 -20 52 0 97 -4 100 -10 3 -5 20 -10 36 -10 22 0 32 7 41 25 17 38 -3
75 -41 75 -16 0 -33 -4 -36 -10z m69 -22 c15 -24 -3 -52 -35 -56 l-24 -3 25
13 c14 8 25 20 25 28 0 8 -11 20 -25 28 l-25 13 24 -3 c13 -2 29 -11 35 -20z
m-26 -21 c3 -15 -8 -17 -105 -17 -109 0 -142 8 -128 29 5 9 41 11 118 8 96 -3
112 -6 115 -20z"/>
<path d="M3237 2982 c-22 -24 -21 -55 1 -75 24 -22 45 -21 65 1 21 23 22 56 1
76 -21 21 -47 20 -67 -2z m57 -8 c21 -21 20 -37 -4 -59 -19 -17 -21 -17 -40 0
-24 22 -25 33 -3 57 20 22 27 22 47 2z"/>
<path d="M3260 2955 c0 -8 5 -15 10 -15 6 0 10 7 10 15 0 8 -4 15 -10 15 -5 0
-10 -7 -10 -15z"/>
</g>
</svg>
